<?xml version="1.0" standalone="no"?><svg xmlns:xlink="http://www.w3.org/1999/xlink" xmlns="http://www.w3.org/2000/svg" viewBox="0 0 1000 500" preserveAspectRatio="xMaxYMax slice"><g transform="scale(0.8880994671403197)"><rect x="0" y="0" width="1126" height="563" fill="#ffffff"/><g transform="translate(0,0) scale(5.63) rotate(0)"><path d="M10 5L5 0L0 5L5 10L0 15L5 20L10 15L15 20L20 15L15 10L20 5L15 0L10 5Z" fill="#f8b986"/></g><g transform="translate(112.6,0) scale(5.63) rotate(0)"><path d="M10 5L5 0L0 5L5 10L0 15L5 20L10 15L15 20L20 15L15 10L20 5L15 0L10 5Z" fill="#f17510"/></g><rect x="675.5999999999999" y="0" width="112.6" height="112.6" fill="#ffffff"/><g transform="translate(731.9,0) scale(2.815) rotate(0)"><path d="M10 5L5 0L0 5L5 10L0 15L5 20L10 15L15 20L20 15L15 10L20 5L15 0L10 5Z" fill="#848484"/></g><g transform="translate(731.9,56.3) scale(2.815) rotate(0)"><path d="M10 5L5 0L0 5L5 10L0 15L5 20L10 15L15 20L20 15L15 10L20 5L15 0L10 5Z" fill="#f38126"/></g><g transform="translate(788.2,0) scale(5.63) rotate(0)"><path d="M10 5L5 0L0 5L5 10L0 15L5 20L10 15L15 20L20 15L15 10L20 5L15 0L10 5Z" fill="#f48d3b"/></g><g transform="translate(900.8,0) scale(5.63) rotate(0)"><path d="M10 5L5 0L0 5L5 10L0 15L5 20L10 15L15 20L20 15L15 10L20 5L15 0L10 5Z" fill="#b8b8b8"/></g><g transform="translate(1013.4,0) scale(5.63) rotate(0)"><path d="M10 5L5 0L0 5L5 10L0 15L5 20L10 15L15 20L20 15L15 10L20 5L15 0L10 5Z" fill="#fefaf6"/></g><rect x="0" y="112.6" width="112.6" height="112.6" fill="#ffffff"/><g transform="translate(0,112.6) scale(2.815) rotate(0)"><path d="M10 5L5 0L0 5L5 10L0 15L5 20L10 15L15 20L20 15L15 10L20 5L15 0L10 5Z" fill="#fac89f"/></g><g transform="translate(56.3,112.6) scale(2.815) rotate(0)"><path d="M10 5L5 0L0 5L5 10L0 15L5 20L10 15L15 20L20 15L15 10L20 5L15 0L10 5Z" fill="#262626"/></g><g transform="translate(0,168.9) scale(2.815) rotate(0)"><path d="M10 5L5 0L0 5L5 10L0 15L5 20L10 15L15 20L20 15L15 10L20 5L15 0L10 5Z" fill="#f49243"/></g><g transform="translate(56.3,168.9) scale(2.815) rotate(0)"><path d="M10 5L5 0L0 5L5 10L0 15L5 20L10 15L15 20L20 15L15 10L20 5L15 0L10 5Z" fill="#f48d39"/></g><g transform="translate(112.6,112.6) scale(5.63) rotate(0)"><path d="M10 5L5 0L0 5L5 10L0 15L5 20L10 15L15 20L20 15L15 10L20 5L15 0L10 5Z" fill="#f1720c"/></g><g transform="translate(563,112.6) scale(5.63) rotate(0)"><path d="M10 5L5 0L0 5L5 10L0 15L5 20L10 15L15 20L20 15L15 10L20 5L15 0L10 5Z" fill="#f38023"/></g><g transform="translate(900.8,112.6) scale(5.63) rotate(0)"><path d="M10 5L5 0L0 5L5 10L0 15L5 20L10 15L15 20L20 15L15 10L20 5L15 0L10 5Z" fill="#f69f59"/></g><rect x="1013.4" y="112.6" width="112.6" height="112.6" fill="#ffffff"/><g transform="translate(1013.4,112.6) scale(2.815) rotate(0)"><path d="M10 5L5 0L0 5L5 10L0 15L5 20L10 15L15 20L20 15L15 10L20 5L15 0L10 5Z" fill="#facfad"/></g><g transform="translate(1069.7,112.6) scale(2.815) rotate(0)"><path d="M10 5L5 0L0 5L5 10L0 15L5 20L10 15L15 20L20 15L15 10L20 5L15 0L10 5Z" fill="#f9c194"/></g><g transform="translate(0,225.2) scale(5.63) rotate(0)"><path d="M10 5L5 0L0 5L5 10L0 15L5 20L10 15L15 20L20 15L15 10L20 5L15 0L10 5Z" fill="#fefefe"/></g><g transform="translate(112.6,225.2) scale(5.63) rotate(0)"><path d="M10 5L5 0L0 5L5 10L0 15L5 20L10 15L15 20L20 15L15 10L20 5L15 0L10 5Z" fill="#f17511"/></g><g transform="translate(225.2,225.2) scale(5.63) rotate(0)"><path d="M10 5L5 0L0 5L5 10L0 15L5 20L10 15L15 20L20 15L15 10L20 5L15 0L10 5Z" fill="#fcdcc3"/></g><g transform="translate(337.8,225.2) scale(5.63) rotate(0)"><path d="M10 5L5 0L0 5L5 10L0 15L5 20L10 15L15 20L20 15L15 10L20 5L15 0L10 5Z" fill="#3c3c3c"/></g><g transform="translate(450.4,225.2) scale(5.63) rotate(0)"><path d="M10 5L5 0L0 5L5 10L0 15L5 20L10 15L15 20L20 15L15 10L20 5L15 0L10 5Z" fill="#f9bd8e"/></g><g transform="translate(563,225.2) scale(5.63) rotate(0)"><path d="M10 5L5 0L0 5L5 10L0 15L5 20L10 15L15 20L20 15L15 10L20 5L15 0L10 5Z" fill="#121212"/></g><rect x="675.5999999999999" y="225.2" width="112.6" height="112.6" fill="#ffffff"/><g transform="translate(675.6,225.2) scale(2.815) rotate(0)"><path d="M10 5L5 0L0 5L5 10L0 15L5 20L10 15L15 20L20 15L15 10L20 5L15 0L10 5Z" fill="#b1b1b1"/></g><g transform="translate(731.9,225.2) scale(2.815) rotate(0)"><path d="M10 5L5 0L0 5L5 10L0 15L5 20L10 15L15 20L20 15L15 10L20 5L15 0L10 5Z" fill="#c5c5c5"/></g><g transform="translate(675.6,281.5) scale(2.815) rotate(0)"><path d="M10 5L5 0L0 5L5 10L0 15L5 20L10 15L15 20L20 15L15 10L20 5L15 0L10 5Z" fill="#facca7"/></g><g transform="translate(731.9,281.5) scale(2.815) rotate(0)"><path d="M10 5L5 0L0 5L5 10L0 15L5 20L10 15L15 20L20 15L15 10L20 5L15 0L10 5Z" fill="#fad0ad"/></g><g transform="translate(788.2,225.2) scale(5.63) rotate(0)"><path d="M10 5L5 0L0 5L5 10L0 15L5 20L10 15L15 20L20 15L15 10L20 5L15 0L10 5Z" fill="#f7f7f7"/></g><g transform="translate(900.8,225.2) scale(5.63) rotate(0)"><path d="M10 5L5 0L0 5L5 10L0 15L5 20L10 15L15 20L20 15L15 10L20 5L15 0L10 5Z" fill="#cfcfcf"/></g><rect x="1013.4" y="225.2" width="112.6" height="112.6" fill="#ffffff"/><g transform="translate(1013.4,281.5) scale(2.815) rotate(0)"><path d="M10 5L5 0L0 5L5 10L0 15L5 20L10 15L15 20L20 15L15 10L20 5L15 0L10 5Z" fill="#f27f22"/></g><g transform="translate(1069.7,281.5) scale(2.815) rotate(0)"><path d="M10 5L5 0L0 5L5 10L0 15L5 20L10 15L15 20L20 15L15 10L20 5L15 0L10 5Z" fill="#f38024"/></g><g transform="translate(0,337.8) scale(5.63) rotate(0)"><path d="M10 5L5 0L0 5L5 10L0 15L5 20L10 15L15 20L20 15L15 10L20 5L15 0L10 5Z" fill="#5f5f5f"/></g><g transform="translate(337.8,337.8) scale(5.63) rotate(0)"><path d="M10 5L5 0L0 5L5 10L0 15L5 20L10 15L15 20L20 15L15 10L20 5L15 0L10 5Z" fill="#a8a8a8"/></g><g transform="translate(450.4,337.8) scale(5.63) rotate(0)"><path d="M10 5L5 0L0 5L5 10L0 15L5 20L10 15L15 20L20 15L15 10L20 5L15 0L10 5Z" fill="#f5964a"/></g><g transform="translate(788.2,337.8) scale(5.63) rotate(0)"><path d="M10 5L5 0L0 5L5 10L0 15L5 20L10 15L15 20L20 15L15 10L20 5L15 0L10 5Z" fill="#e7e7e7"/></g><g transform="translate(900.8,337.8) scale(5.63) rotate(0)"><path d="M10 5L5 0L0 5L5 10L0 15L5 20L10 15L15 20L20 15L15 10L20 5L15 0L10 5Z" fill="#1e1e1e"/></g><g transform="translate(1013.4,337.8) scale(5.63) rotate(0)"><path d="M10 5L5 0L0 5L5 10L0 15L5 20L10 15L15 20L20 15L15 10L20 5L15 0L10 5Z" fill="#f59547"/></g><g transform="translate(0,450.4) scale(5.63) rotate(0)"><path d="M10 5L5 0L0 5L5 10L0 15L5 20L10 15L15 20L20 15L15 10L20 5L15 0L10 5Z" fill="#fce0ca"/></g><rect x="225.2" y="450.4" width="112.6" height="112.6" fill="#ffffff"/><g transform="translate(225.2,450.4) scale(2.815) rotate(0)"><path d="M10 5L5 0L0 5L5 10L0 15L5 20L10 15L15 20L20 15L15 10L20 5L15 0L10 5Z" fill="#fce3ce"/></g><g transform="translate(281.5,450.4) scale(2.815) rotate(0)"><path d="M10 5L5 0L0 5L5 10L0 15L5 20L10 15L15 20L20 15L15 10L20 5L15 0L10 5Z" fill="#b9b9b9"/></g><g transform="translate(281.5,506.7) scale(2.815) rotate(0)"><path d="M10 5L5 0L0 5L5 10L0 15L5 20L10 15L15 20L20 15L15 10L20 5L15 0L10 5Z" fill="#f27612"/></g><g transform="translate(337.8,450.4) scale(5.63) rotate(0)"><path d="M10 5L5 0L0 5L5 10L0 15L5 20L10 15L15 20L20 15L15 10L20 5L15 0L10 5Z" fill="#fce0c9"/></g><g transform="translate(450.4,450.4) scale(5.63) rotate(0)"><path d="M10 5L5 0L0 5L5 10L0 15L5 20L10 15L15 20L20 15L15 10L20 5L15 0L10 5Z" fill="#010101"/></g><g transform="translate(675.6,450.4) scale(5.63) rotate(0)"><path d="M10 5L5 0L0 5L5 10L0 15L5 20L10 15L15 20L20 15L15 10L20 5L15 0L10 5Z" fill="#d7d7d7"/></g><g transform="translate(788.2,450.4) scale(5.63) rotate(0)"><path d="M10 5L5 0L0 5L5 10L0 15L5 20L10 15L15 20L20 15L15 10L20 5L15 0L10 5Z" fill="#606060"/></g><g transform="translate(900.8,450.4) scale(5.63) rotate(0)"><path d="M10 5L5 0L0 5L5 10L0 15L5 20L10 15L15 20L20 15L15 10L20 5L15 0L10 5Z" fill="#333333"/></g><g transform="translate(1013.4,450.4) scale(5.63) rotate(0)"><path d="M10 5L5 0L0 5L5 10L0 15L5 20L10 15L15 20L20 15L15 10L20 5L15 0L10 5Z" fill="#fbd7ba"/></g></g></svg>