<?xml version="1.0" standalone="no"?><svg xmlns:xlink="http://www.w3.org/1999/xlink" xmlns="http://www.w3.org/2000/svg" viewBox="0 0 2000 1090.9125609534988" preserveAspectRatio="xMaxYMax slice"><g transform="scale(1.9085244243413204)"><rect x="0" y="0" width="1047.9333333333334" height="571.6" fill="#fafafa"/><g transform="translate(0,0) scale(4.7635) rotate(0)"><path d="M10 5L5 0L0 5L5 10L0 15L5 20L10 15L15 20L20 15L15 10L20 5L15 0L10 5Z" fill="#efeff0"/></g><g transform="translate(95.27,0) scale(4.7635) rotate(0)"><path d="M10 5L5 0L0 5L5 10L0 15L5 20L10 15L15 20L20 15L15 10L20 5L15 0L10 5Z" fill="#b377e4"/></g><rect x="190.53333333333333" y="0" width="95.26666666666667" height="95.26666666666667" fill="#fafafa"/><g transform="translate(190.53,0) scale(2.3815) rotate(0)"><path d="M10 5L5 0L0 5L5 10L0 15L5 20L10 15L15 20L20 15L15 10L20 5L15 0L10 5Z" fill="#d5d5d6"/></g><g transform="translate(238.17,0) scale(2.3815) rotate(0)"><path d="M10 5L5 0L0 5L5 10L0 15L5 20L10 15L15 20L20 15L15 10L20 5L15 0L10 5Z" fill="#d8bcf0"/></g><g transform="translate(238.17,47.63) scale(2.3815) rotate(0)"><path d="M10 5L5 0L0 5L5 10L0 15L5 20L10 15L15 20L20 15L15 10L20 5L15 0L10 5Z" fill="#b57ae4"/></g><g transform="translate(381.07,0) scale(4.7635) rotate(0)"><path d="M10 5L5 0L0 5L5 10L0 15L5 20L10 15L15 20L20 15L15 10L20 5L15 0L10 5Z" fill="#f0f0f0"/></g><rect x="476.3333333333333" y="0" width="95.26666666666667" height="95.26666666666667" fill="#fafafa"/><g transform="translate(476.33,0) scale(2.3815) rotate(0)"><path d="M10 5L5 0L0 5L5 10L0 15L5 20L10 15L15 20L20 15L15 10L20 5L15 0L10 5Z" fill="#5a5a60"/></g><g transform="translate(523.97,0) scale(2.3815) rotate(0)"><path d="M10 5L5 0L0 5L5 10L0 15L5 20L10 15L15 20L20 15L15 10L20 5L15 0L10 5Z" fill="#7e7e83"/></g><rect x="762.1333333333333" y="0" width="95.26666666666667" height="95.26666666666667" fill="#fafafa"/><g transform="translate(762.13,0) scale(2.3815) rotate(0)"><path d="M10 5L5 0L0 5L5 10L0 15L5 20L10 15L15 20L20 15L15 10L20 5L15 0L10 5Z" fill="#bb86e6"/></g><g transform="translate(809.77,0) scale(2.3815) rotate(0)"><path d="M10 5L5 0L0 5L5 10L0 15L5 20L10 15L15 20L20 15L15 10L20 5L15 0L10 5Z" fill="#ececec"/></g><g transform="translate(809.77,47.63) scale(2.3815) rotate(0)"><path d="M10 5L5 0L0 5L5 10L0 15L5 20L10 15L15 20L20 15L15 10L20 5L15 0L10 5Z" fill="#d7b9ef"/></g><rect x="857.4" y="0" width="95.26666666666667" height="95.26666666666667" fill="#fafafa"/><g transform="translate(857.4,0) scale(2.3815) rotate(0)"><path d="M10 5L5 0L0 5L5 10L0 15L5 20L10 15L15 20L20 15L15 10L20 5L15 0L10 5Z" fill="#be8be7"/></g><g transform="translate(905.03,0) scale(2.3815) rotate(0)"><path d="M10 5L5 0L0 5L5 10L0 15L5 20L10 15L15 20L20 15L15 10L20 5L15 0L10 5Z" fill="#c79dea"/></g><g transform="translate(905.03,47.63) scale(2.3815) rotate(0)"><path d="M10 5L5 0L0 5L5 10L0 15L5 20L10 15L15 20L20 15L15 10L20 5L15 0L10 5Z" fill="#d1afed"/></g><rect x="952.6666666666666" y="0" width="95.26666666666667" height="95.26666666666667" fill="#fafafa"/><g transform="translate(952.67,0) scale(2.3815) rotate(0)"><path d="M10 5L5 0L0 5L5 10L0 15L5 20L10 15L15 20L20 15L15 10L20 5L15 0L10 5Z" fill="#b57ae4"/></g><g transform="translate(1000.3,0) scale(2.3815) rotate(0)"><path d="M10 5L5 0L0 5L5 10L0 15L5 20L10 15L15 20L20 15L15 10L20 5L15 0L10 5Z" fill="#8e8e92"/></g><g transform="translate(1000.3,47.63) scale(2.3815) rotate(0)"><path d="M10 5L5 0L0 5L5 10L0 15L5 20L10 15L15 20L20 15L15 10L20 5L15 0L10 5Z" fill="#c79cea"/></g><g transform="translate(0,95.27) scale(4.7635) rotate(0)"><path d="M10 5L5 0L0 5L5 10L0 15L5 20L10 15L15 20L20 15L15 10L20 5L15 0L10 5Z" fill="#87878c"/></g><rect x="95.26666666666667" y="95.26666666666667" width="95.26666666666667" height="95.26666666666667" fill="#fafafa"/><g transform="translate(95.27,95.27) scale(2.3815) rotate(0)"><path d="M10 5L5 0L0 5L5 10L0 15L5 20L10 15L15 20L20 15L15 10L20 5L15 0L10 5Z" fill="#c5c5c7"/></g><g transform="translate(95.27,142.9) scale(2.3815) rotate(0)"><path d="M10 5L5 0L0 5L5 10L0 15L5 20L10 15L15 20L20 15L15 10L20 5L15 0L10 5Z" fill="#dbc1f0"/></g><rect x="285.8" y="95.26666666666667" width="95.26666666666667" height="95.26666666666667" fill="#fafafa"/><g transform="translate(285.8,95.27) scale(2.3815) rotate(0)"><path d="M10 5L5 0L0 5L5 10L0 15L5 20L10 15L15 20L20 15L15 10L20 5L15 0L10 5Z" fill="#cba3eb"/></g><g transform="translate(333.43,95.27) scale(2.3815) rotate(0)"><path d="M10 5L5 0L0 5L5 10L0 15L5 20L10 15L15 20L20 15L15 10L20 5L15 0L10 5Z" fill="#ebdff5"/></g><rect x="571.6" y="95.26666666666667" width="95.26666666666667" height="95.26666666666667" fill="#fafafa"/><g transform="translate(571.6,142.9) scale(2.3815) rotate(0)"><path d="M10 5L5 0L0 5L5 10L0 15L5 20L10 15L15 20L20 15L15 10L20 5L15 0L10 5Z" fill="#bdbdbf"/></g><g transform="translate(619.23,142.9) scale(2.3815) rotate(0)"><path d="M10 5L5 0L0 5L5 10L0 15L5 20L10 15L15 20L20 15L15 10L20 5L15 0L10 5Z" fill="#c598ea"/></g><g transform="translate(666.87,95.27) scale(4.7635) rotate(0)"><path d="M10 5L5 0L0 5L5 10L0 15L5 20L10 15L15 20L20 15L15 10L20 5L15 0L10 5Z" fill="#d3b1ee"/></g><g transform="translate(762.13,95.27) scale(4.7635) rotate(0)"><path d="M10 5L5 0L0 5L5 10L0 15L5 20L10 15L15 20L20 15L15 10L20 5L15 0L10 5Z" fill="#707075"/></g><g transform="translate(857.4,95.27) scale(4.7635) rotate(0)"><path d="M10 5L5 0L0 5L5 10L0 15L5 20L10 15L15 20L20 15L15 10L20 5L15 0L10 5Z" fill="#9a9a9e"/></g><g transform="translate(952.67,95.27) scale(4.7635) rotate(0)"><path d="M10 5L5 0L0 5L5 10L0 15L5 20L10 15L15 20L20 15L15 10L20 5L15 0L10 5Z" fill="#dac0f0"/></g><rect x="0" y="190.53333333333333" width="95.26666666666667" height="95.26666666666667" fill="#fafafa"/><g transform="translate(0,190.53) scale(2.3815) rotate(0)"><path d="M10 5L5 0L0 5L5 10L0 15L5 20L10 15L15 20L20 15L15 10L20 5L15 0L10 5Z" fill="#a55ddf"/></g><g transform="translate(47.63,190.53) scale(2.3815) rotate(0)"><path d="M10 5L5 0L0 5L5 10L0 15L5 20L10 15L15 20L20 15L15 10L20 5L15 0L10 5Z" fill="#e8e8e8"/></g><g transform="translate(47.63,238.17) scale(2.3815) rotate(0)"><path d="M10 5L5 0L0 5L5 10L0 15L5 20L10 15L15 20L20 15L15 10L20 5L15 0L10 5Z" fill="#ddddde"/></g><g transform="translate(95.27,190.53) scale(4.7635) rotate(0)"><path d="M10 5L5 0L0 5L5 10L0 15L5 20L10 15L15 20L20 15L15 10L20 5L15 0L10 5Z" fill="#c394e9"/></g><rect x="190.53333333333333" y="190.53333333333333" width="95.26666666666667" height="95.26666666666667" fill="#fafafa"/><g transform="translate(190.53,190.53) scale(2.3815) rotate(0)"><path d="M10 5L5 0L0 5L5 10L0 15L5 20L10 15L15 20L20 15L15 10L20 5L15 0L10 5Z" fill="#adadb0"/></g><g transform="translate(238.17,190.53) scale(2.3815) rotate(0)"><path d="M10 5L5 0L0 5L5 10L0 15L5 20L10 15L15 20L20 15L15 10L20 5L15 0L10 5Z" fill="#9e51dd"/></g><g transform="translate(285.8,190.53) scale(4.7635) rotate(0)"><path d="M10 5L5 0L0 5L5 10L0 15L5 20L10 15L15 20L20 15L15 10L20 5L15 0L10 5Z" fill="#a760e0"/></g><g transform="translate(476.33,190.53) scale(4.7635) rotate(0)"><path d="M10 5L5 0L0 5L5 10L0 15L5 20L10 15L15 20L20 15L15 10L20 5L15 0L10 5Z" fill="#f7f4f9"/></g><g transform="translate(762.13,190.53) scale(4.7635) rotate(0)"><path d="M10 5L5 0L0 5L5 10L0 15L5 20L10 15L15 20L20 15L15 10L20 5L15 0L10 5Z" fill="#c1c1c3"/></g><g transform="translate(0,285.8) scale(4.7635) rotate(0)"><path d="M10 5L5 0L0 5L5 10L0 15L5 20L10 15L15 20L20 15L15 10L20 5L15 0L10 5Z" fill="#b3b3b6"/></g><g transform="translate(190.53,285.8) scale(4.7635) rotate(0)"><path d="M10 5L5 0L0 5L5 10L0 15L5 20L10 15L15 20L20 15L15 10L20 5L15 0L10 5Z" fill="#d7baef"/></g><rect x="381.06666666666666" y="285.8" width="95.26666666666667" height="95.26666666666667" fill="#fafafa"/><g transform="translate(381.07,333.43) scale(2.3815) rotate(0)"><path d="M10 5L5 0L0 5L5 10L0 15L5 20L10 15L15 20L20 15L15 10L20 5L15 0L10 5Z" fill="#8a8a8f"/></g><g transform="translate(428.7,333.43) scale(2.3815) rotate(0)"><path d="M10 5L5 0L0 5L5 10L0 15L5 20L10 15L15 20L20 15L15 10L20 5L15 0L10 5Z" fill="#b172e3"/></g><g transform="translate(762.13,285.8) scale(4.7635) rotate(0)"><path d="M10 5L5 0L0 5L5 10L0 15L5 20L10 15L15 20L20 15L15 10L20 5L15 0L10 5Z" fill="#bbbbbd"/></g><rect x="857.4" y="285.8" width="95.26666666666667" height="95.26666666666667" fill="#fafafa"/><g transform="translate(905.03,285.8) scale(2.3815) rotate(0)"><path d="M10 5L5 0L0 5L5 10L0 15L5 20L10 15L15 20L20 15L15 10L20 5L15 0L10 5Z" fill="#6e6e73"/></g><g transform="translate(857.4,333.43) scale(2.3815) rotate(0)"><path d="M10 5L5 0L0 5L5 10L0 15L5 20L10 15L15 20L20 15L15 10L20 5L15 0L10 5Z" fill="#c496e9"/></g><g transform="translate(905.03,333.43) scale(2.3815) rotate(0)"><path d="M10 5L5 0L0 5L5 10L0 15L5 20L10 15L15 20L20 15L15 10L20 5L15 0L10 5Z" fill="#a55de0"/></g><g transform="translate(952.67,285.8) scale(4.7635) rotate(0)"><path d="M10 5L5 0L0 5L5 10L0 15L5 20L10 15L15 20L20 15L15 10L20 5L15 0L10 5Z" fill="#eeeeee"/></g><g transform="translate(0,381.07) scale(4.7635) rotate(0)"><path d="M10 5L5 0L0 5L5 10L0 15L5 20L10 15L15 20L20 15L15 10L20 5L15 0L10 5Z" fill="#d6b8ef"/></g><rect x="95.26666666666667" y="381.06666666666666" width="95.26666666666667" height="95.26666666666667" fill="#fafafa"/><g transform="translate(95.27,381.07) scale(2.3815) rotate(0)"><path d="M10 5L5 0L0 5L5 10L0 15L5 20L10 15L15 20L20 15L15 10L20 5L15 0L10 5Z" fill="#e8e8e8"/></g><g transform="translate(142.9,381.07) scale(2.3815) rotate(0)"><path d="M10 5L5 0L0 5L5 10L0 15L5 20L10 15L15 20L20 15L15 10L20 5L15 0L10 5Z" fill="#f9f9fa"/></g><g transform="translate(95.27,428.7) scale(2.3815) rotate(0)"><path d="M10 5L5 0L0 5L5 10L0 15L5 20L10 15L15 20L20 15L15 10L20 5L15 0L10 5Z" fill="#d2b1ee"/></g><g transform="translate(142.9,428.7) scale(2.3815) rotate(0)"><path d="M10 5L5 0L0 5L5 10L0 15L5 20L10 15L15 20L20 15L15 10L20 5L15 0L10 5Z" fill="#dbdbdc"/></g><rect x="285.8" y="381.06666666666666" width="95.26666666666667" height="95.26666666666667" fill="#fafafa"/><g transform="translate(333.43,381.07) scale(2.3815) rotate(0)"><path d="M10 5L5 0L0 5L5 10L0 15L5 20L10 15L15 20L20 15L15 10L20 5L15 0L10 5Z" fill="#cfabed"/></g><g transform="translate(285.8,428.7) scale(2.3815) rotate(0)"><path d="M10 5L5 0L0 5L5 10L0 15L5 20L10 15L15 20L20 15L15 10L20 5L15 0L10 5Z" fill="#e3cff3"/></g><g transform="translate(333.43,428.7) scale(2.3815) rotate(0)"><path d="M10 5L5 0L0 5L5 10L0 15L5 20L10 15L15 20L20 15L15 10L20 5L15 0L10 5Z" fill="#ceced0"/></g><g transform="translate(381.07,381.07) scale(4.7635) rotate(0)"><path d="M10 5L5 0L0 5L5 10L0 15L5 20L10 15L15 20L20 15L15 10L20 5L15 0L10 5Z" fill="#ddc4f1"/></g><g transform="translate(476.33,381.07) scale(4.7635) rotate(0)"><path d="M10 5L5 0L0 5L5 10L0 15L5 20L10 15L15 20L20 15L15 10L20 5L15 0L10 5Z" fill="#d5d5d7"/></g><rect x="571.6" y="381.06666666666666" width="95.26666666666667" height="95.26666666666667" fill="#fafafa"/><g transform="translate(571.6,381.07) scale(2.3815) rotate(0)"><path d="M10 5L5 0L0 5L5 10L0 15L5 20L10 15L15 20L20 15L15 10L20 5L15 0L10 5Z" fill="#5e5e64"/></g><g transform="translate(619.23,381.07) scale(2.3815) rotate(0)"><path d="M10 5L5 0L0 5L5 10L0 15L5 20L10 15L15 20L20 15L15 10L20 5L15 0L10 5Z" fill="#737378"/></g><g transform="translate(619.23,428.7) scale(2.3815) rotate(0)"><path d="M10 5L5 0L0 5L5 10L0 15L5 20L10 15L15 20L20 15L15 10L20 5L15 0L10 5Z" fill="#87878b"/></g><g transform="translate(666.87,381.07) scale(4.7635) rotate(0)"><path d="M10 5L5 0L0 5L5 10L0 15L5 20L10 15L15 20L20 15L15 10L20 5L15 0L10 5Z" fill="#b2b2b5"/></g><g transform="translate(857.4,381.07) scale(4.7635) rotate(0)"><path d="M10 5L5 0L0 5L5 10L0 15L5 20L10 15L15 20L20 15L15 10L20 5L15 0L10 5Z" fill="#a9a9ac"/></g><g transform="translate(0,476.33) scale(4.7635) rotate(0)"><path d="M10 5L5 0L0 5L5 10L0 15L5 20L10 15L15 20L20 15L15 10L20 5L15 0L10 5Z" fill="#fafafa"/></g><g transform="translate(190.53,476.33) scale(4.7635) rotate(0)"><path d="M10 5L5 0L0 5L5 10L0 15L5 20L10 15L15 20L20 15L15 10L20 5L15 0L10 5Z" fill="#eee4f6"/></g><g transform="translate(285.8,476.33) scale(4.7635) rotate(0)"><path d="M10 5L5 0L0 5L5 10L0 15L5 20L10 15L15 20L20 15L15 10L20 5L15 0L10 5Z" fill="#bb86e6"/></g><g transform="translate(381.07,476.33) scale(4.7635) rotate(0)"><path d="M10 5L5 0L0 5L5 10L0 15L5 20L10 15L15 20L20 15L15 10L20 5L15 0L10 5Z" fill="#636368"/></g><g transform="translate(476.33,476.33) scale(4.7635) rotate(0)"><path d="M10 5L5 0L0 5L5 10L0 15L5 20L10 15L15 20L20 15L15 10L20 5L15 0L10 5Z" fill="#e4d1f3"/></g><g transform="translate(571.6,476.33) scale(4.7635) rotate(0)"><path d="M10 5L5 0L0 5L5 10L0 15L5 20L10 15L15 20L20 15L15 10L20 5L15 0L10 5Z" fill="#d5b6ef"/></g><g transform="translate(666.87,476.33) scale(4.7635) rotate(0)"><path d="M10 5L5 0L0 5L5 10L0 15L5 20L10 15L15 20L20 15L15 10L20 5L15 0L10 5Z" fill="#78787d"/></g><rect x="762.1333333333333" y="476.3333333333333" width="95.26666666666667" height="95.26666666666667" fill="#fafafa"/><g transform="translate(809.77,476.33) scale(2.3815) rotate(0)"><path d="M10 5L5 0L0 5L5 10L0 15L5 20L10 15L15 20L20 15L15 10L20 5L15 0L10 5Z" fill="#7a7a7e"/></g><g transform="translate(809.77,523.97) scale(2.3815) rotate(0)"><path d="M10 5L5 0L0 5L5 10L0 15L5 20L10 15L15 20L20 15L15 10L20 5L15 0L10 5Z" fill="#a156de"/></g></g></svg>